<svg id="Layer_1" data-name="Layer 1" xmlns="http://www.w3.org/2000/svg" xmlns:xlink="http://www.w3.org/1999/xlink" viewBox="0 0 111.41 111.41"><defs><linearGradient id="linear-gradient" x1="85.12" y1="108.14" x2="24.6" y2="14.58" gradientUnits="userSpaceOnUse"><stop offset="0" stop-color="#0b47b6"/><stop offset="0.16" stop-color="#0f4ebc"/><stop offset="0.39" stop-color="#1960cc"/><stop offset="0.66" stop-color="#2b7ee7"/><stop offset="0.85" stop-color="#3a98fe"/></linearGradient></defs><path d="M64,8.29A55.71,55.71,0,0,0,18,95.42L13.86,110a3.25,3.25,0,0,0,3.93,4l15.12-3.82A55.71,55.71,0,1,0,64,8.29ZM96.74,91.75A38.72,38.72,0,1,1,66.66,25.34.62.62,0,0,1,67,26.52,35.25,35.25,0,0,0,96.06,90.73.62.62,0,0,1,96.74,91.75Z" transform="translate(-8.29 -8.29)" style="fill:url(#linear-gradient)"/></svg>